# xmcd
#
# Track frame offsets:
#	150
#	12546
#	24982
#	35825
#	45672
#	57431
#	65704
#	75656
#	86027
#	97775
#	109719
#	122046
#	134484
#	145268
#
# Disc length: 2088 seconds
#
# Revision: 1
# Processed by: cddbd v1.5.1PL2 Copyright (c) Steve Scherf et al.
# Submitted via: audiograbber 1.83.01
#
DISCID=c108260e
DTITLE=Johnny Cash - Golden Legends 
DYEAR=2006
DGENRE=Country
TTITLE0=I Walk The Line
TTITLE1=Folsom Prison Blues
TTITLE2=Cry, Cry, Cry
TTITLE3=Ballad of a Teenage Queen
TTITLE4=Thanks a Lot
TTITLE5=Guess Things Happen That Way
TTITLE6=Get Rhythm
TTITLE7=There You Go
TTITLE8=So Doggone Lonesome
TTITLE9=Home of the Blues
TTITLE10=Give My Love to Rose
TTITLE11=Next In Line
TTITLE12=Train of Love
TTITLE13=Big River
EXTD=
EXTT0=
EXTT1=
EXTT2=
EXTT3=
EXTT4=
EXTT5=
EXTT6=
EXTT7=
EXTT8=
EXTT9=
EXTT10=
EXTT11=
EXTT12=
EXTT13=
PLAYORDER=
